<?xml version="1.0" encoding="utf-8"?>
<!-- Generator: Adobe Illustrator 23.0.1, SVG Export Plug-In . SVG Version: 6.00 Build 0)  -->
<svg version="1.1" id="Layer_1" xmlns="http://www.w3.org/2000/svg" xmlns:xlink="http://www.w3.org/1999/xlink" x="0px" y="0px"
	 viewBox="0 0 755.6 180.4" style="enable-background:new 0 0 755.6 180.4;" xml:space="preserve">
<style type="text/css">
	.st0{fill:#000000;}
	.st1{fill:#B30838;}
	.st2{fill:#6DCBD7;}
	.st3{fill:#B8CB33;}
	.st4{fill:#00977F;}
</style>
<title>GlobalNOC_atIU_logo_horz_4Cwht</title>
<g>
	<g id="IN_IU">
		<path class="st0" d="M247.6,122.2c-5.4,0.1-10.9-0.9-15.9-2.9c-9.2-3.7-16.5-11-20.1-20.3c-1.9-4.8-2.8-10-2.8-15.2v-0.2
			c0-5.1,0.9-10.1,2.8-14.8c3.7-9.3,11-16.8,20.3-20.7c4.9-2.1,10.2-3.2,15.5-3.1c3,0,6,0.2,8.9,0.7c2.5,0.4,5,1.1,7.4,2
			c2.3,0.8,4.4,1.9,6.5,3.2c2.1,1.3,4.1,2.7,5.9,4.3l-8.3,9.9c-1.4-1.2-2.9-2.3-4.4-3.3c-1.5-1-3.1-1.8-4.7-2.5
			c-1.7-0.7-3.5-1.2-5.4-1.6c-2.1-0.4-4.3-0.6-6.5-0.6c-3.3,0-6.6,0.7-9.6,2.1c-2.9,1.4-5.5,3.3-7.7,5.7c-2.2,2.5-3.9,5.3-5.1,8.4
			c-1.3,3.2-1.9,6.7-1.9,10.2v0.2c0,3.6,0.6,7.3,1.8,10.7c2.2,6.3,7,11.4,13.1,14c3.3,1.4,6.8,2.1,10.4,2c3.4,0,6.8-0.5,10-1.6
			c2.9-0.9,5.6-2.3,8-4.1v-14h-19.1V79.2h31.8v31.4c-1.9,1.6-4,3.1-6.1,4.5c-4.8,3-10.1,5.1-15.6,6.2
			C253.9,121.9,250.7,122.2,247.6,122.2z"/>
		<path class="st0" d="M290,46.2h13v74.7h-13V46.2z"/>
		<path class="st0" d="M340.3,122.2c-4.1,0-8.1-0.7-11.9-2.3c-3.5-1.4-6.8-3.6-9.5-6.2c-2.7-2.7-4.8-5.8-6.2-9.3
			c-1.5-3.6-2.3-7.4-2.2-11.3v-0.2c0-3.9,0.8-7.8,2.3-11.4c1.5-3.5,3.6-6.7,6.3-9.3c5.7-5.7,13.5-8.8,21.5-8.7c4.1,0,8.2,0.7,12,2.3
			c7.1,2.9,12.8,8.5,15.7,15.6c1.5,3.6,2.3,7.5,2.2,11.4v0.2c0,3.9-0.8,7.7-2.3,11.3c-3,7.1-8.7,12.8-15.9,15.7
			C348.5,121.4,344.5,122.2,340.3,122.2z M340.5,111c2.4,0,4.8-0.5,7-1.4c2-0.9,3.9-2.2,5.4-3.9c1.5-1.7,2.7-3.6,3.4-5.7
			c0.8-2.2,1.2-4.5,1.2-6.9v-0.2c0-2.4-0.4-4.8-1.3-7c-0.8-2.1-2-4.1-3.6-5.8c-1.5-1.6-3.4-3-5.4-3.9c-4.4-1.9-9.5-1.9-13.9,0
			c-2,0.9-3.8,2.2-5.3,3.8c-1.5,1.7-2.7,3.6-3.4,5.7c-0.8,2.2-1.2,4.6-1.2,6.9v0.2c0,2.4,0.4,4.8,1.3,7c0.8,2.1,2,4.1,3.5,5.8
			c1.5,1.7,3.4,3,5.4,4C335.8,110.6,338.2,111,340.5,111L340.5,111z"/>
		<path class="st0" d="M409.6,122.1c-4,0.1-8-0.9-11.5-3c-2.9-1.9-5.5-4.2-7.5-6.9v8.8h-13V46.2h13L390.5,74c2.1-3,4.7-5.5,7.7-7.5
			c3.4-2.1,7.4-3.2,11.4-3c3.3,0,6.6,0.7,9.7,1.9c3.1,1.3,6,3.2,8.4,5.6c2.5,2.6,4.6,5.8,5.9,9.2c1.6,4,2.3,8.2,2.2,12.5v0.2
			c0.1,4.3-0.7,8.5-2.2,12.5c-1.3,3.4-3.3,6.5-5.9,9.2c-2.4,2.4-5.2,4.4-8.4,5.7C416.3,121.5,413,122.1,409.6,122.1z M406.7,110.9
			c4.3,0,8.4-1.8,11.4-4.9c1.5-1.6,2.7-3.6,3.5-5.7c0.9-2.4,1.3-5,1.3-7.5v-0.2c0-2.5-0.4-5-1.3-7.4c-0.8-2.1-2-4-3.5-5.7
			c-2.9-3.2-7.1-4.9-11.4-4.9c-2.2,0-4.3,0.4-6.3,1.3c-2,0.8-3.8,2.1-5.2,3.7c-1.5,1.7-2.7,3.6-3.6,5.7c-0.9,2.3-1.4,4.8-1.3,7.4
			v0.2c0,2.5,0.4,5.1,1.3,7.4c0.8,2.1,2,4.1,3.6,5.7c1.5,1.6,3.3,2.8,5.2,3.6C402.4,110.4,404.5,110.9,406.7,110.9z"/>
		<path class="st0" d="M477.4,120.9V114c-2.1,2.4-4.6,4.3-7.4,5.8c-3.4,1.7-7.1,2.5-10.9,2.3c-2.6,0-5.2-0.4-7.7-1.1
			c-2.3-0.7-4.5-1.8-6.4-3.3c-3.9-3.1-6.2-8-6-13v-0.2c-0.1-2.8,0.5-5.6,1.7-8.2c1.1-2.3,2.7-4.2,4.8-5.8c2.2-1.6,4.6-2.8,7.3-3.4
			c3-0.8,6.1-1.1,9.1-1.1c2.9,0,5.8,0.2,8.7,0.6c2.3,0.4,4.6,1,6.9,1.7v-1c0-3.9-1.2-6.9-3.6-9s-5.8-3.1-10.3-3.1
			c-2.9,0-5.8,0.3-8.5,1c-2.6,0.7-5.1,1.5-7.6,2.6L444,68.4c3.1-1.4,6.3-2.6,9.6-3.4c3.9-0.9,7.9-1.4,11.9-1.3
			c8.4,0,14.6,2.1,18.7,6.2c4.1,4.2,6.1,10,6.1,17.6v33.4H477.4z M477.8,97.3c-1.9-0.7-3.8-1.2-5.8-1.6c-2.3-0.4-4.7-0.7-7.1-0.6
			c-4.1,0-7.2,0.8-9.5,2.3c-2.2,1.4-3.5,3.8-3.4,6.4v0.2c-0.1,2.5,1.1,4.8,3.1,6.2c2.3,1.5,5,2.2,7.7,2.1c2,0,4-0.3,5.9-0.9
			c1.7-0.5,3.3-1.3,4.8-2.4c1.3-1,2.4-2.3,3.1-3.7c0.8-1.5,1.1-3.2,1.1-4.9L477.8,97.3z"/>
		<path class="st0" d="M500.2,46.2h13v74.7h-13V46.2z"/>
		<path class="st0" d="M524.5,46.2h19.4l30.8,39.5V46.2h20.4v74.7h-18.2l-32-41v41h-20.4V46.2z"/>
		<path class="st0" d="M641.1,122.4c-5.5,0.1-10.9-1-16-3c-4.7-1.9-9-4.7-12.7-8.3c-3.6-3.5-6.4-7.7-8.4-12.3c-2-4.7-3-9.8-3-15
			v-0.2c-0.1-10.3,4.1-20.3,11.5-27.5c3.7-3.6,8-6.4,12.8-8.3c10.3-4,21.7-4,32,0c4.7,1.9,9,4.7,12.7,8.2c3.6,3.5,6.4,7.7,8.4,12.3
			c2,4.7,3,9.8,3,15v0.2c0.1,10.3-4.1,20.3-11.5,27.5c-3.7,3.6-8,6.4-12.8,8.3C652,121.4,646.6,122.4,641.1,122.4z M641.3,103.7
			c2.7,0,5.4-0.5,7.8-1.6c2.3-1,4.3-2.5,6-4.3c1.7-1.9,3-4,3.8-6.3c0.9-2.5,1.4-5.1,1.4-7.7v-0.2c0-2.6-0.5-5.2-1.4-7.7
			c-0.9-2.4-2.3-4.5-4-6.4c-1.7-1.9-3.8-3.4-6.1-4.4c-5-2.2-10.6-2.2-15.6,0c-4.6,2.1-8.2,5.9-9.8,10.7c-0.9,2.5-1.3,5.1-1.3,7.7
			v0.2c0,2.6,0.5,5.2,1.4,7.7c0.9,2.4,2.2,4.5,3.9,6.4c1.7,1.9,3.8,3.4,6,4.4C635.9,103.2,638.6,103.8,641.3,103.7L641.3,103.7z"/>
		<path class="st0" d="M722.5,122.4c-5.1,0-10.2-0.9-15-2.9c-4.6-1.8-8.7-4.6-12.2-8.1c-7.3-7.4-11.4-17.3-11.3-27.7v-0.2
			c-0.1-10.3,4-20.2,11.2-27.6c3.5-3.6,7.8-6.4,12.4-8.3c5-2,10.3-3.1,15.7-3c3.5,0,7,0.3,10.5,1.1c3,0.7,5.9,1.8,8.6,3.2
			c2.5,1.4,4.9,3,7,5c2.1,1.9,4,4,5.6,6.3l-15.5,12c-1.9-2.5-4.3-4.7-7-6.4c-2.8-1.6-6-2.4-9.3-2.3c-2.5,0-5,0.5-7.2,1.6
			c-2.1,1-4,2.4-5.6,4.2c-1.6,1.9-2.9,4-3.7,6.3c-0.9,2.5-1.4,5.1-1.3,7.7v0.2c0,2.7,0.4,5.3,1.3,7.8c0.8,2.3,2.1,4.5,3.7,6.3
			c1.6,1.8,3.5,3.2,5.6,4.2c2.3,1.1,4.7,1.6,7.2,1.6c1.8,0,3.6-0.2,5.3-0.6c1.5-0.4,3-1,4.4-1.9c1.3-0.8,2.6-1.8,3.7-2.9
			c1.2-1.2,2.3-2.4,3.4-3.7l15.6,11.1c-1.8,2.4-3.7,4.6-5.8,6.7c-2.1,2.1-4.5,3.9-7.2,5.3c-2.8,1.6-5.9,2.7-9,3.5
			C730,122,726.3,122.5,722.5,122.4z"/>
		<path class="st1" d="M37.1,142.3c0,1.6-1.3,2.8-2.8,2.8h-14c-1.6,0-2.8-1.3-2.8-2.8l0,0v-4.4c0-1.6,1.3-2.8,2.8-2.8c0,0,0,0,0,0
			h14c1.6,0,2.8,1.3,2.8,2.8V142.3z"/>
		<path class="st1" d="M19.7,55.7c0,1.6-1.3,2.8-2.8,2.8h-14c-1.6,0-2.8-1.3-2.8-2.8c0,0,0,0,0,0v-4.4c0-1.6,1.3-2.8,2.8-2.8h14
			c1.6,0,2.8,1.3,2.8,2.8L19.7,55.7z"/>
		<path class="st2" d="M180.8,76.8h-5c-1.5,0-2.8-1.2-2.8-2.8v-4.5c0-1.6,1.2-2.8,2.8-2.8c0,0,0,0,0,0h3.3
			C179.9,70,180.5,73.4,180.8,76.8z"/>
		<path class="st3" d="M155.2,112.2c0,1.6-1.3,2.8-2.8,2.8h-14c-1.6,0-2.8-1.3-2.8-2.8v-4.4c0-1.6,1.3-2.8,2.8-2.8h14
			c1.6,0,2.8,1.3,2.8,2.8V112.2z"/>
		<path class="st2" d="M93.5,72.4h14c1.6,0,2.8,1.3,2.8,2.8v4.4c0,1.6-1.3,2.8-2.8,2.8h-14c-1.6,0-2.8-1.3-2.8-2.8v-4.4
			C90.6,73.6,91.9,72.4,93.5,72.4z"/>
		<path class="st4" d="M163.6,139c-2.5,3.3-5.2,6.4-8.1,9.4h-7.7c-1.6,0-2.8-1.3-2.8-2.8v-4.4c0-1.6,1.3-2.8,2.8-2.8h14
			C162.4,138.3,163.1,138.6,163.6,139z"/>
		<path class="st3" d="M56.4,38.3h14c1.6,0,2.8,1.3,2.8,2.8v4.4c0,1.6-1.3,2.8-2.8,2.8h-14c-1.6,0-2.8-1.3-2.8-2.8v-4.4
			C53.6,39.6,54.9,38.3,56.4,38.3z"/>
		<path class="st1" d="M48.5,114.1c0,1.6-1.2,2.9-2.8,2.9c0,0,0,0,0,0h-14c-1.6,0-2.8-1.3-2.8-2.8v-4.5c0-1.6,1.3-2.8,2.8-2.8h14
			c1.6,0,2.8,1.3,2.8,2.8V114.1z"/>
		<path class="st3" d="M153.5,74.8h14c1.6,0,2.8,1.3,2.8,2.8V82c0,1.6-1.3,2.8-2.8,2.8h-14c-1.6,0-2.8-1.3-2.8-2.8v-4.4
			C150.7,76,152,74.8,153.5,74.8z"/>
		<path class="st1" d="M40.7,21.3h14c1.6,0,2.8,1.3,2.8,2.8v4.4c0,1.6-1.3,2.8-2.8,2.8h-14c-1.6,0-2.8-1.3-2.8-2.8v-4.4
			C37.9,22.6,39.2,21.3,40.7,21.3z"/>
		<path class="st3" d="M161.3,30h-11.8c-1.6,0-2.8-1.2-2.8-2.8c0,0,0,0,0,0v-4.5c0-1.6,1.3-2.8,2.8-2.8c0,0,0,0,0,0h2.2
			C155.2,23,158.4,26.4,161.3,30z"/>
		<path class="st4" d="M32,53.5h14c1.6,0,2.8,1.3,2.8,2.8v4.4c0,1.6-1.3,2.8-2.8,2.8H32c-1.6,0-2.8-1.3-2.8-2.8v-4.4
			C29.2,54.7,30.5,53.5,32,53.5z"/>
		<path class="st1" d="M149.2,72.2c0,1.6-1.3,2.8-2.8,2.8h-14c-1.5,0-2.8-1.3-2.8-2.8v-4.4c0-1.5,1.2-2.8,2.8-2.8h14
			c1.6,0,2.8,1.3,2.8,2.8L149.2,72.2z"/>
		<path class="st1" d="M102.2,141.5c0,1.6-1.3,2.8-2.8,2.8h-14c-1.6,0-2.8-1.3-2.8-2.8v-4.4c0-1.6,1.3-2.8,2.8-2.8h14
			c1.6,0,2.8,1.3,2.8,2.8V141.5z"/>
		<path class="st3" d="M95.5,43.9h14c1.6,0,2.8,1.3,2.8,2.8v4.4c0,1.6-1.3,2.8-2.8,2.8h-14c-1.6,0-2.8-1.3-2.8-2.8v-4.4
			C92.7,45.2,94,43.9,95.5,43.9z"/>
		<path class="st4" d="M56.8,7.1h14c1.6,0,2.8,1.3,2.8,2.8v4.4c0,1.6-1.3,2.8-2.8,2.8h-14c-1.6,0-2.8-1.3-2.8-2.8V9.9
			C54,8.3,55.2,7.1,56.8,7.1z"/>
		<path class="st4" d="M112.4,122.5c0,1.6-1.2,2.8-2.8,2.8c0,0,0,0,0,0h-14c-1.6,0-2.8-1.3-2.8-2.8v-4.4c0-1.6,1.3-2.8,2.8-2.8h14
			c1.6,0,2.8,1.3,2.8,2.8V122.5z"/>
		<path class="st4" d="M127.5,150.6c0,1.6-1.3,2.8-2.8,2.8h-14c-1.6,0-2.8-1.3-2.8-2.8v-4.4c0-1.6,1.3-2.8,2.8-2.8h14
			c1.6,0,2.8,1.3,2.8,2.8V150.6z"/>
		<path class="st1" d="M90.4,63.7c0,1.6-1.3,2.8-2.8,2.8h-14c-1.6,0-2.8-1.3-2.8-2.8v-4.4c0-1.6,1.3-2.8,2.8-2.8h14
			c1.6,0,2.8,1.3,2.8,2.8V63.7z"/>
		<path class="st2" d="M36.2,86.3c0,1.6-1.3,2.8-2.8,2.8h-14c-1.6,0-2.8-1.3-2.8-2.8v-4.4c0-1.6,1.2-2.8,2.8-2.8c0,0,0,0,0,0h14
			c1.6,0,2.8,1.3,2.8,2.8L36.2,86.3z"/>
		<path class="st1" d="M171.7,45.9c-0.4,0.1-0.7,0.2-1.1,0.2h-14c-1.5,0-2.8-1.3-2.8-2.8v-4.5c0-1.6,1.2-2.8,2.8-2.8c0,0,0,0,0,0
			h9.4C168.1,39.2,170,42.5,171.7,45.9z"/>
		<path class="st1" d="M146.8,15.9c-0.5,0.7-1.4,1.1-2.3,1.1h-14c-1.6,0-2.8-1.3-2.8-2.8V9.7c0-1.6,1.3-2.8,2.8-2.8h2
			C137.6,9.4,142.4,12.4,146.8,15.9z"/>
		<path class="st3" d="M146.2,51.8c0,1.6-1.3,2.8-2.8,2.8h-14c-1.6,0-2.8-1.3-2.8-2.8v-4.4c0-1.6,1.3-2.8,2.8-2.8h14
			c1.6,0,2.8,1.3,2.8,2.8V51.8z"/>
		<path class="st3" d="M137.1,162.5l-2.1,1.3l-0.5,0.3c-4.2,2.3-8.7,4.2-13.2,5.7h-1c-1.5,0-2.8-1.2-2.8-2.8v-4.4
			c0-1.6,1.3-2.8,2.8-2.8h14C135.8,159.8,137,161,137.1,162.5z"/>
		<path class="st4" d="M99.1,93.5h14c1.6,0,2.8,1.3,2.8,2.8v4.4c0,1.6-1.3,2.8-2.8,2.8h-14c-1.6,0-2.8-1.3-2.8-2.8v-4.4
			C96.3,94.8,97.6,93.5,99.1,93.5z"/>
		<path class="st3" d="M92.7,25.5c0,1.6-1.3,2.8-2.8,2.8h-14c-1.6,0-2.8-1.3-2.8-2.8v-4.4c0-1.6,1.3-2.8,2.8-2.8h14
			c1.6,0,2.8,1.3,2.8,2.8c0,0,0,0,0,0V25.5z"/>
		<path class="st3" d="M138.7,133.6c0,1.6-1.3,2.8-2.8,2.8h-14c-1.6,0-2.8-1.3-2.8-2.8v-4.4c0-1.6,1.3-2.8,2.8-2.8h14
			c1.6,0,2.8,1.3,2.8,2.8V133.6z"/>
		<path class="st2" d="M56.1,140.1h14c1.6,0,2.8,1.2,2.9,2.8c0,0,0,0,0,0.1v4.4c0,1.6-1.3,2.8-2.8,2.8h0h-14c-1.6,0-2.8-1.3-2.8-2.8
			l0,0v-4.4C53.4,141.4,54.6,140.1,56.1,140.1z"/>
		<path class="st3" d="M45.4,72.1h14c1.6,0,2.8,1.3,2.8,2.8v4.4c0,1.6-1.3,2.8-2.8,2.8h-14c-1.6,0-2.8-1.3-2.8-2.8v-4.4
			C42.6,73.4,43.8,72.1,45.4,72.1z"/>
		<path class="st2" d="M131.9,6.6v0.5c0,1.6-1.3,2.8-2.8,2.8h-14c-1.6,0-2.8-1.3-2.8-2.8V2.6c0-1.1,0.7-2.2,1.7-2.6
			C120.2,1.5,126.2,3.7,131.9,6.6z"/>
		<path class="st3" d="M178.7,107.1c-0.8,3.4-1.9,6.8-3.1,10.1h-1.4c-1.6,0-2.8-1.2-2.8-2.8c0,0,0,0,0,0v-4.4c0-1.6,1.3-2.8,2.8-2.8
			l0,0H178.7z"/>
		<path class="st1" d="M102.6,169.3c0,1.6-1.3,2.8-2.8,2.8h-14c-1.6,0-2.8-1.3-2.8-2.8v-4.4c0-1.6,1.2-2.8,2.8-2.9c0,0,0,0,0,0h14
			c1.6,0,2.8,1.3,2.8,2.8L102.6,169.3z"/>
		<path class="st1" d="M125.8,115.4c0,1.6-1.3,2.8-2.8,2.8c0,0,0,0,0,0h-14c-1.6,0-2.8-1.3-2.8-2.8v-4.4c0-1.6,1.3-2.8,2.8-2.8h14
			c1.6,0,2.8,1.3,2.8,2.8L125.8,115.4z"/>
		<path class="st1" d="M147.4,93.7c0,1.6-1.3,2.8-2.8,2.8h-14c-1.6,0-2.8-1.3-2.8-2.8v-4.4c0-1.6,1.3-2.8,2.8-2.8h14
			c1.6,0,2.8,1.3,2.8,2.8v0V93.7z"/>
		<path class="st1" d="M85.7,0.5h14c1.6,0,2.8,1.3,2.8,2.8v4.4c0,1.6-1.3,2.8-2.8,2.8h-14c-1.6,0-2.8-1.3-2.8-2.8V3.3
			C82.9,1.8,84.2,0.5,85.7,0.5z"/>
		<path class="st4" d="M71.2,34.1h14c1.6,0,2.8,1.3,2.8,2.8v4.4c0,1.6-1.3,2.8-2.8,2.8h-14c-1.6,0-2.8-1.3-2.8-2.8v-4.4
			C68.3,35.4,69.6,34.1,71.2,34.1z"/>
		<path class="st1" d="M149,154.3c-3.7,3.1-7.7,5.9-11.9,8.3l-2.6,1.4h-0.9c-1.6,0-2.8-1.3-2.8-2.8v-4.5c0.1-1.5,1.3-2.7,2.8-2.7h14
			C148.1,154,148.6,154.1,149,154.3z"/>
		<path class="st1" d="M174,121.2c-1.5,3.5-3.2,6.8-5.2,10.1h-7c-1.6,0-2.8-1.3-2.8-2.8V124c0-1.6,1.3-2.8,2.8-2.8H174z"/>
		<path class="st3" d="M71.2,92.8h14c1.6,0,2.8,1.3,2.8,2.8v4.4c0,1.6-1.3,2.8-2.8,2.8h-14c-1.6,0-2.8-1.3-2.8-2.8v-4.4
			C68.3,94.1,69.6,92.8,71.2,92.8z"/>
		<path class="st4" d="M124.5,64.1c0,1.6-1.2,2.8-2.8,2.9c0,0,0,0,0,0h-14c-1.6,0-2.8-1.3-2.8-2.8v-4.5c0-1.6,1.3-2.8,2.8-2.8h14
			c1.6,0,2.8,1.3,2.8,2.8V64.1z"/>
		<path class="st4" d="M139.9,31.9c0,1.6-1.3,2.8-2.8,2.8c0,0,0,0,0,0h-14c-1.6,0-2.8-1.3-2.8-2.8v-4.4c0-1.5,1.3-2.8,2.8-2.8h14
			c1.6,0,2.8,1.3,2.8,2.8L139.9,31.9z"/>
		<path class="st4" d="M177.9,61.9h-10.9c-1.6,0-2.8-1.2-2.8-2.8c0,0,0,0,0,0v-4.4c0-1.6,1.3-2.8,2.8-2.8l0,0h7.4
			C175.8,55.1,177,58.4,177.9,61.9z"/>
		<path class="st1" d="M125.3,36.4c0,1.6-1.3,2.8-2.8,2.8h-14c-1.6,0-2.8-1.3-2.8-2.8v-4.4c0-1.6,1.3-2.8,2.8-2.8h14
			c1.6,0,2.8,1.3,2.8,2.8V36.4z"/>
		<path class="st2" d="M157.2,56.3c0,1.6-1.3,2.8-2.8,2.8h-14c-1.6,0-2.8-1.3-2.8-2.8v-4.4c0-1.6,1.2-2.8,2.8-2.8h14
			c1.6,0,2.8,1.3,2.8,2.8L157.2,56.3z"/>
		<path class="st4" d="M166.3,108.2c0,1.6-1.3,2.8-2.8,2.8h-14c-1.6,0-2.8-1.3-2.8-2.8v-4.4c0-1.5,1.3-2.8,2.8-2.8h14
			c1.6,0,2.8,1.3,2.8,2.8L166.3,108.2z"/>
		<path class="st1" d="M181.2,89c-0.1,3.4-0.4,6.8-0.9,10.1h-10.6c-1.6,0-2.8-1.3-2.8-2.8v-4.4c0-1.5,1.3-2.8,2.8-2.8H181.2z"/>
		<path class="st4" d="M61.3,110h14c1.6,0,2.8,1.3,2.8,2.8v4.4c0,1.6-1.3,2.8-2.8,2.8h-14c-1.6,0-2.8-1.3-2.8-2.8v-4.4
			C58.5,111.3,59.8,110,61.3,110z"/>
		<path class="st2" d="M118.7,80.2h14c1.6,0,2.8,1.3,2.8,2.8v4.4c0,1.6-1.3,2.8-2.8,2.8h-14c-1.6,0-2.8-1.3-2.8-2.8v-4.4
			C115.8,81.5,117.1,80.2,118.7,80.2z"/>
		<path class="st2" d="M102.6,13.6h14c1.6,0,2.8,1.3,2.8,2.8v4.4c0,1.6-1.3,2.8-2.8,2.8h-14c-1.6,0-2.8-1.3-2.8-2.8v-4.4
			C99.8,14.9,101.1,13.6,102.6,13.6z"/>
		<path class="st2" d="M147.8,128.6c0,1.6-1.3,2.8-2.8,2.8c0,0,0,0,0,0h-14c-1.6,0-2.8-1.3-2.8-2.8v-4.4c0-1.6,1.3-2.8,2.8-2.8h14
			c1.6,0,2.8,1.3,2.8,2.8L147.8,128.6z"/>
		<path class="st1" d="M81,77.4h14c1.6,0,2.8,1.3,2.8,2.8v4.4c0,1.6-1.3,2.8-2.8,2.8H81c-1.6,0-2.8-1.3-2.8-2.8v-4.4
			C78.2,78.7,79.4,77.4,81,77.4z"/>
		<path class="st0" d="M221.1,174.5c-0.9,0-1.9-0.1-2.8-0.4c-0.9-0.2-1.7-0.6-2.4-1.2c-0.7-0.5-1.3-1.2-1.7-2
			c-0.4-0.8-0.7-1.8-0.6-2.7v-0.1c0-1,0.2-2,0.6-2.9c0.4-0.8,1-1.5,1.8-2.1c0.8-0.6,1.8-1,2.8-1.2c1.1-0.3,2.3-0.5,3.5-0.4
			c1.1,0,2.3,0.1,3.4,0.2c0.9,0.2,1.9,0.4,2.8,0.6v-0.6c0.1-1.5-0.5-3-1.6-4.1c-1.3-1-2.8-1.5-4.4-1.4c-1.1,0-2.2,0.1-3.3,0.4
			c-1,0.3-2,0.6-2.9,1.1l-0.9-2.5c1.1-0.5,2.2-0.9,3.4-1.3c1.3-0.3,2.7-0.5,4-0.5c2.9,0,5.1,0.8,6.6,2.2c1.5,1.6,2.3,3.8,2.1,6v12.4
			h-3v-3c-0.8,1-1.7,1.8-2.8,2.4C224.2,174.2,222.6,174.6,221.1,174.5z M221.7,172c0.9,0,1.8-0.1,2.6-0.4c0.8-0.2,1.5-0.6,2.1-1.1
			c0.6-0.5,1.1-1.1,1.4-1.7c0.4-0.7,0.5-1.4,0.5-2.2v-1.9c-0.8-0.2-1.7-0.4-2.6-0.6c-1.1-0.2-2.2-0.3-3.3-0.3
			c-1.5-0.1-3.1,0.3-4.4,1.1c-1,0.7-1.6,1.8-1.5,3v0c0,0.6,0.1,1.2,0.4,1.7c0.3,0.5,0.6,0.9,1.1,1.3c0.5,0.3,1,0.6,1.6,0.8
			C220.4,171.9,221,172,221.7,172L221.7,172z"/>
		<path class="st0" d="M243.6,174.4c-0.8,0-1.5-0.1-2.3-0.3c-0.7-0.2-1.3-0.5-1.8-1c-0.5-0.5-0.9-1.1-1.2-1.8
			c-0.3-0.8-0.5-1.7-0.4-2.6v-12.2h-2.8v-2.7h2.8v-6.1h3v6.1h6.4v2.7h-6.4v11.8c-0.1,1,0.2,1.9,0.9,2.6c0.7,0.5,1.6,0.8,2.5,0.7
			c0.5,0,1,0,1.5-0.1c0.5-0.1,1-0.3,1.5-0.5v2.6c-0.5,0.3-1.1,0.5-1.7,0.6C244.9,174.3,244.3,174.4,243.6,174.4z"/>
		<path class="st0" d="M263.3,146.6h3.1v27.4h-3.1V146.6z"/>
		<path class="st0" d="M273.5,153.8h3v3.5c0.7-1.1,1.6-2.1,2.7-2.8c1.3-0.8,2.8-1.2,4.3-1.1c1.1,0,2.2,0.2,3.3,0.6
			c0.9,0.4,1.8,0.9,2.4,1.7c0.7,0.7,1.2,1.6,1.5,2.6c0.4,1.1,0.5,2.2,0.5,3.3v12.6h-3v-11.8c0.1-1.6-0.4-3.2-1.5-4.5
			c-1.1-1.1-2.6-1.7-4.2-1.6c-0.8,0-1.6,0.1-2.4,0.4c-0.7,0.3-1.4,0.7-1.9,1.3c-0.6,0.6-1,1.3-1.3,2c-0.3,0.8-0.5,1.7-0.5,2.6V174
			h-3L273.5,153.8z"/>
		<path class="st0" d="M305.8,174.5c-1.2,0-2.4-0.2-3.6-0.7c-1.2-0.5-2.2-1.2-3.1-2.1c-0.9-0.9-1.7-2.1-2.2-3.3
			c-0.6-1.4-0.9-2.9-0.8-4.4v-0.1c0-1.5,0.3-3,0.8-4.4c0.5-1.2,1.3-2.4,2.2-3.3c0.9-0.9,1.9-1.6,3.1-2.1c1.1-0.5,2.3-0.7,3.6-0.7
			c0.9,0,1.7,0.1,2.6,0.4c0.7,0.2,1.5,0.5,2.1,0.9c0.6,0.4,1.2,0.8,1.7,1.4c0.5,0.5,0.9,1.1,1.4,1.6v-12.2h3v28.6h-3V170
			c-0.4,0.6-0.9,1.2-1.4,1.7c-0.5,0.5-1.1,1-1.7,1.4c-0.6,0.4-1.4,0.8-2.1,1C307.5,174.4,306.6,174.5,305.8,174.5z M306.3,171.8
			c0.9,0,1.9-0.2,2.7-0.6c0.9-0.4,1.7-0.9,2.4-1.6c0.7-0.7,1.3-1.5,1.6-2.5c0.4-1,0.6-2.1,0.6-3.2v-0.1c0-1.1-0.2-2.2-0.6-3.2
			c-0.4-0.9-0.9-1.7-1.6-2.4c-0.7-0.7-1.5-1.2-2.4-1.6c-0.9-0.4-1.8-0.6-2.7-0.6c-1,0-1.9,0.2-2.8,0.5c-0.9,0.3-1.6,0.9-2.3,1.5
			c-0.7,0.7-1.2,1.5-1.5,2.4c-0.4,1.1-0.6,2.2-0.6,3.3v0.1c0,1.1,0.2,2.2,0.6,3.3c0.3,0.9,0.9,1.8,1.5,2.5
			C302.6,171,304.4,171.8,306.3,171.8L306.3,171.8z"/>
		<path class="st0" d="M322.7,146h3.5v3.3h-3.5V146z M322.9,153.8h3V174h-3V153.8z"/>
		<path class="st0" d="M338.3,174.5c-0.9,0-1.9-0.1-2.8-0.4c-0.9-0.2-1.7-0.6-2.4-1.2c-0.7-0.5-1.3-1.2-1.7-2
			c-0.4-0.8-0.7-1.8-0.6-2.7v-0.1c0-1,0.2-2,0.6-2.9c0.4-0.8,1-1.5,1.8-2.1c0.8-0.6,1.8-1,2.8-1.2c1.1-0.3,2.3-0.5,3.5-0.4
			c1.1,0,2.3,0.1,3.4,0.2c0.9,0.2,1.9,0.4,2.8,0.6v-0.6c0.1-1.5-0.5-3-1.6-4.1c-1.3-1-2.8-1.5-4.4-1.4c-1.1,0-2.2,0.1-3.3,0.4
			c-1,0.3-2,0.6-2.9,1.1l-0.9-2.5c1.1-0.5,2.2-0.9,3.4-1.3c1.3-0.3,2.7-0.5,4-0.5c2.9,0,5.1,0.8,6.5,2.2c1.5,1.6,2.3,3.8,2.1,6v12.4
			h-3v-3c-0.8,1-1.7,1.8-2.8,2.4C341.4,174.2,339.8,174.6,338.3,174.5z M338.9,172c0.9,0,1.8-0.1,2.6-0.4c0.8-0.2,1.5-0.6,2.1-1.1
			c0.6-0.5,1.1-1.1,1.4-1.7c0.4-0.7,0.5-1.4,0.5-2.2v-1.9c-0.8-0.2-1.7-0.4-2.6-0.6c-1.1-0.2-2.2-0.3-3.3-0.3
			c-1.5-0.1-3.1,0.3-4.4,1.1c-1,0.7-1.6,1.8-1.5,3v0c0,0.6,0.1,1.2,0.4,1.7c0.3,0.5,0.6,0.9,1.1,1.3c0.5,0.3,1,0.6,1.6,0.8
			C337.6,171.9,338.2,172,338.9,172L338.9,172z"/>
		<path class="st0" d="M354.5,153.8h3v3.5c0.7-1.1,1.6-2.1,2.7-2.8c1.3-0.8,2.8-1.2,4.3-1.1c1.1,0,2.2,0.2,3.3,0.6
			c0.9,0.4,1.8,0.9,2.4,1.7c0.7,0.7,1.2,1.6,1.5,2.6c0.4,1.1,0.5,2.2,0.5,3.3v12.6h-3v-11.8c0.1-1.6-0.4-3.2-1.5-4.5
			c-1.1-1.1-2.6-1.7-4.2-1.6c-0.8,0-1.6,0.1-2.4,0.4c-0.7,0.3-1.4,0.7-1.9,1.3c-0.6,0.6-1,1.3-1.3,2c-0.3,0.8-0.5,1.7-0.5,2.6V174
			h-3L354.5,153.8z"/>
		<path class="st0" d="M384.2,174.5c-0.9,0-1.9-0.1-2.8-0.4c-0.9-0.2-1.7-0.6-2.4-1.2c-0.7-0.5-1.3-1.2-1.7-2
			c-0.4-0.8-0.7-1.8-0.6-2.7v-0.1c0-1,0.2-2,0.6-2.9c0.4-0.8,1-1.5,1.8-2.1c0.8-0.6,1.8-1,2.8-1.2c1.1-0.3,2.3-0.5,3.5-0.4
			c1.1,0,2.3,0.1,3.4,0.2c0.9,0.2,1.9,0.4,2.8,0.6v-0.6c0.1-1.5-0.5-3-1.6-4.1c-1.3-1-2.8-1.5-4.4-1.4c-1.1,0-2.2,0.1-3.3,0.4
			c-1,0.3-2,0.6-2.9,1.1l-0.9-2.5c1.1-0.5,2.2-0.9,3.4-1.3c1.3-0.3,2.7-0.5,4-0.5c2.9,0,5.1,0.8,6.5,2.2c1.5,1.6,2.3,3.8,2.1,6v12.4
			h-3v-3c-0.8,1-1.7,1.8-2.8,2.4C387.3,174.2,385.8,174.6,384.2,174.5z M384.8,172c0.9,0,1.8-0.1,2.6-0.4c0.8-0.2,1.5-0.6,2.1-1.1
			c0.6-0.5,1.1-1.1,1.5-1.7c0.4-0.7,0.5-1.4,0.5-2.2v-1.9c-0.8-0.2-1.7-0.4-2.6-0.6c-1.1-0.2-2.2-0.3-3.3-0.3
			c-1.5-0.1-3.1,0.3-4.4,1.1c-1,0.7-1.6,1.8-1.5,3v0c0,0.6,0.1,1.2,0.4,1.7c0.3,0.5,0.6,0.9,1.1,1.3c0.5,0.3,1,0.6,1.6,0.8
			C383.5,171.9,384.2,172,384.8,172L384.8,172z"/>
		<path class="st0" d="M422.2,174.5c-1.6,0-3.2-0.2-4.6-0.8c-1.4-0.5-2.6-1.3-3.6-2.3c-1-1.1-1.8-2.3-2.3-3.7
			c-0.6-1.7-0.9-3.4-0.8-5.1v-16h3.1v15.8c0,3,0.7,5.3,2.2,6.9c3.5,3.1,8.7,3.2,12.2,0.1c1.5-1.5,2.2-3.8,2.2-6.8v-16h3.1v15.7
			c0,1.8-0.2,3.6-0.8,5.3c-0.5,1.4-1.3,2.7-2.3,3.8c-1,1-2.2,1.8-3.6,2.3C425.4,174.2,423.8,174.5,422.2,174.5z"/>
		<path class="st0" d="M440.2,153.8h3v3.5c0.7-1.1,1.6-2.1,2.7-2.8c1.3-0.8,2.8-1.2,4.3-1.1c1.1,0,2.2,0.2,3.3,0.6
			c0.9,0.4,1.7,0.9,2.4,1.7c0.7,0.7,1.2,1.6,1.5,2.6c0.4,1.1,0.5,2.2,0.5,3.3v12.6h-3v-11.8c0.1-1.6-0.4-3.2-1.5-4.5
			c-1.1-1.1-2.6-1.7-4.2-1.6c-0.8,0-1.6,0.1-2.4,0.4c-0.7,0.3-1.4,0.7-1.9,1.3c-0.6,0.6-1,1.3-1.3,2c-0.3,0.8-0.5,1.7-0.5,2.6V174
			h-3L440.2,153.8z"/>
		<path class="st0" d="M463.8,146h3.5v3.3h-3.5V146z M464,153.8h3V174h-3V153.8z"/>
		<path class="st0" d="M471.2,153.8h3.3l6.8,16.8l6.9-16.8h3.3l-8.8,20.4H480L471.2,153.8z"/>
		<path class="st0" d="M496.4,165.2c0.1,1,0.3,2,0.8,2.9c0.8,1.6,2.1,2.8,3.8,3.4c0.8,0.3,1.7,0.5,2.5,0.4c1.3,0,2.5-0.2,3.6-0.8
			c1-0.6,2-1.3,2.8-2.1l1.9,1.7c-1,1.1-2.2,2.1-3.5,2.8c-1.5,0.7-3.2,1.1-4.9,1c-1.3,0-2.7-0.2-3.9-0.8c-1.2-0.5-2.3-1.2-3.2-2.2
			c-0.9-1-1.7-2.1-2.2-3.4c-0.5-1.4-0.8-2.8-0.8-4.3c0-1.4,0.2-2.8,0.7-4.1c0.4-1.2,1.1-2.4,2-3.4c0.9-1,1.9-1.7,3.1-2.2
			c2.5-1.1,5.4-1.1,7.9,0c1.2,0.5,2.2,1.3,3,2.3c0.8,1,1.5,2.2,1.8,3.4c0.4,1.4,0.6,2.8,0.6,4.2v0.4c0,0.2,0,0.4,0,0.6L496.4,165.2z
			 M509.5,162.7c-0.1-0.9-0.3-1.8-0.6-2.6c-0.3-0.8-0.7-1.5-1.3-2.2c-0.6-0.6-1.2-1.1-2-1.5c-0.8-0.4-1.7-0.6-2.6-0.6
			c-0.8,0-1.7,0.2-2.4,0.5c-0.8,0.3-1.4,0.8-2,1.4c-0.6,0.6-1.1,1.4-1.4,2.2c-0.4,0.9-0.6,1.8-0.7,2.7H509.5z"/>
		<path class="st0" d="M517.5,153.8h3v5.3c0.4-0.8,0.8-1.6,1.4-2.3c0.5-0.7,1.2-1.3,1.9-1.8c0.7-0.5,1.5-0.9,2.3-1.1
			c0.9-0.3,1.8-0.4,2.7-0.4v3.2h-0.2c-1.1,0-2.1,0.2-3.1,0.6c-1,0.4-1.9,1-2.6,1.8c-0.8,0.8-1.4,1.8-1.7,2.9c-0.4,1.3-0.6,2.6-0.6,4
			v8.1h-3L517.5,153.8z"/>
		<path class="st0" d="M539.5,174.4c-1.5,0-3-0.3-4.4-0.8c-1.4-0.5-2.8-1.2-4-2.2l1.5-2.1c1,0.8,2.2,1.4,3.4,1.9
			c1.1,0.4,2.4,0.7,3.6,0.7c1.1,0,2.1-0.3,3-0.9c0.8-0.5,1.2-1.4,1.2-2.4v-0.1c0-0.5-0.1-0.9-0.4-1.3c-0.3-0.4-0.7-0.8-1.1-1
			c-0.5-0.3-1.1-0.5-1.6-0.7c-0.6-0.2-1.2-0.4-1.9-0.6s-1.6-0.5-2.4-0.8c-0.8-0.2-1.5-0.6-2.2-1c-0.6-0.4-1.2-0.9-1.6-1.6
			c-0.4-0.7-0.6-1.5-0.6-2.4v-0.1c0-1.6,0.7-3.2,1.9-4.2c0.7-0.5,1.4-0.9,2.2-1.2c0.9-0.3,1.8-0.4,2.8-0.4c1.3,0,2.6,0.2,3.8,0.6
			c1.2,0.4,2.4,0.9,3.5,1.6l-1.3,2.3c-0.9-0.6-1.9-1.1-3-1.4c-1-0.3-2-0.5-3-0.5c-1-0.1-2,0.2-2.9,0.9c-0.7,0.5-1.1,1.3-1,2.1v0.1
			c0,0.5,0.1,0.9,0.4,1.2c0.3,0.4,0.7,0.7,1.2,0.9c0.5,0.3,1.1,0.5,1.7,0.7c0.6,0.2,1.3,0.4,2,0.6s1.6,0.5,2.3,0.8
			c0.7,0.3,1.4,0.6,2.1,1.1c0.6,0.4,1.1,1,1.5,1.6c0.4,0.7,0.6,1.5,0.6,2.3v0.1c0,0.9-0.2,1.8-0.6,2.6c-0.4,0.7-0.9,1.4-1.5,1.9
			c-0.7,0.5-1.4,1-2.3,1.2C541.5,174.3,540.5,174.5,539.5,174.4z"/>
		<path class="st0" d="M551.6,146h3.5v3.3h-3.5V146z M551.8,153.8h3V174h-3V153.8z"/>
		<path class="st0" d="M567.7,174.4c-0.8,0-1.5-0.1-2.3-0.3c-0.7-0.2-1.3-0.5-1.8-1c-0.5-0.5-0.9-1.1-1.2-1.8
			c-0.3-0.8-0.5-1.7-0.4-2.6v-12.2h-2.8v-2.7h2.9v-6.1h3v6.1h6.4v2.7H565v11.8c-0.1,1,0.2,1.9,1,2.6c0.7,0.5,1.6,0.8,2.5,0.7
			c0.5,0,1,0,1.5-0.1c0.5-0.1,1-0.3,1.5-0.5v2.6c-0.5,0.3-1.1,0.5-1.7,0.6C569,174.3,568.4,174.4,567.7,174.4z"/>
		<path class="st0" d="M579.8,180.4c-0.8,0-1.5-0.1-2.3-0.2c-0.7-0.2-1.4-0.4-2-0.8l1-2.4c0.5,0.2,1,0.4,1.5,0.6
			c0.6,0.1,1.1,0.2,1.7,0.2c0.8,0,1.7-0.3,2.3-0.8c0.8-0.9,1.5-1.9,1.8-3l-9.2-20.2h3.4l7.4,16.9l6.5-16.9h3.2l-8.5,20.9
			c-0.6,1.7-1.6,3.2-2.9,4.4C582.6,180.1,581.2,180.5,579.8,180.4z"/>
	</g>
</g>
</svg>
